Coordinates
version=1
nRows=18
nColumns=38
inDegrees=yes

Units are S.I. units (second, meters, Newtons, ...)
Angles are in degrees.

endheader
time	pelvis_tilt	pelvis_list	pelvis_rotation	pelvis_tx	pelvis_ty	pelvis_tz	hip_flexion_r	hip_adduction_r	hip_rotation_r	knee_angle_r	ankle_angle_r	subtalar_angle_r	mtp_angle_r	hip_flexion_l	hip_adduction_l	hip_rotation_l	knee_angle_l	ankle_angle_l	subtalar_angle_l	mtp_angle_l	lumbar_extension	lumbar_bending	lumbar_rotation	arm_flex_r	arm_add_r	arm_rot_r	elbow_flex_r	pro_sup_r	wrist_flex_r	wrist_dev_r	arm_flex_l	arm_add_l	arm_rot_l	elbow_flex_l	pro_sup_l	wrist_flex_l	wrist_dev_l
      1.91000000	      6.21859635	     -1.57874836	     -2.00397302	      0.62889036	      0.98227502	     -0.24617512	    -21.19432334	      3.68721710	      0.19197964	    -21.05067669	      5.61984895	      1.67131749	      0.00000000	     15.71822878	     -0.24727071	      3.36907049	    -10.48513203	     -3.70257911	     -4.40332652	      0.00000000	    -18.94555783	      0.52136435	      8.82630831	     -6.09603929	    -12.53815100	     16.17732073	     80.49255720	     43.72838414	      0.00000000	      0.00000000	     -8.05641778	     -8.93672015	     21.50269407	     32.11376561	     43.72838414	      0.00000000	      0.00000000
      1.92000000	      6.18914046	     -1.25895510	     -1.93114763	      0.64472115	      0.98256485	     -0.24722632	    -20.49684186	      3.20158301	     -0.62232929	    -23.65668701	      3.41631444	      1.72735276	      0.00000000	     15.37170048	      0.31837692	      3.76638917	    -10.96501130	     -4.61416809	     -4.51790059	      0.00000000	    -18.74065367	      0.06160884	      8.61331452	     -6.50854230	    -12.44292691	     16.18650073	     80.39438284	     43.73725825	      0.00000000	      0.00000000	     -7.81097619	     -8.80922343	     21.48453019	     32.16435255	     43.73725825	      0.00000000	      0.00000000
      1.93000000	      6.08027553	     -0.88253543	     -1.89949897	      0.66017835	      0.98305387	     -0.24823438	    -19.22997511	      2.49570435	     -2.17941130	    -26.97678588	      0.95585545	      2.38146378	      0.00000000	     15.23053720	      0.93055619	      4.33489660	    -11.95979193	     -5.00657795	     -5.76675995	      0.00000000	    -18.49790110	     -0.49194866	      8.31331415	     -6.85770648	    -12.22916063	     16.03536385	     80.09293628	     43.75954471	      0.00000000	      0.00000000	     -7.54996909	     -8.64570178	     21.42578506	     32.12487454	     43.75954471	      0.00000000	      0.00000000
      1.94000000	      6.23616451	     -0.62664658	     -1.77717059	      0.67532211	      0.98396465	     -0.24919474	    -18.18805940	      1.97787445	     -3.48274359	    -30.16288485	     -2.69638873	      2.12795406	      0.00000000	     14.85750134	      1.50047842	      5.05661558	    -13.23588992	     -5.88944741	     -7.61098138	      0.00000000	    -18.63225562	     -0.90173126	      7.96168082	     -7.04569727	    -11.96552234	     15.82409335	     79.60852606	     43.79412359	      0.00000000	      0.00000000	     -7.10067409	     -8.46648524	     21.35086381	     32.16709258	     43.79412359	      0.00000000	      0.00000000
      1.95000000	      6.52573893	     -0.45609248	     -1.57702844	      0.69018560	      0.98505809	     -0.25018343	    -17.09404864	      1.57504233	     -4.68537696	    -33.44703292	     -6.81457971	      0.85317773	      0.00000000	     14.53796009	      1.86060071	      5.12724664	    -15.01453881	     -6.10022258	     -8.16821967	      0.00000000	    -18.96947707	     -1.19688097	      7.56521448	     -7.22766626	    -11.84255114	     15.83915259	     79.43689882	     43.80125267	      0.00000000	      0.00000000	     -6.56957613	     -8.31098990	     21.34465080	     32.35188398	     43.80125267	      0.00000000	      0.00000000
      1.96000000	      6.69030096	     -0.33661254	     -1.27867559	      0.70475805	      0.98589959	     -0.25121599	    -15.80072775	      1.11232944	     -6.18902015	    -36.65453444	    -10.63140722	     -0.52860433	      0.00000000	     14.55318515	      2.17316105	      5.12666955	    -17.01043887	     -5.22874280	     -8.88913917	      0.00000000	    -19.21177801	     -1.40695873	      7.04603477	     -7.40799922	    -11.67904150	     15.82449228	     79.13009835	     43.81000045	      0.00000000	      0.00000000	     -5.94964449	     -8.17578887	     21.33786038	     32.59759799	     43.81000045	      0.00000000	      0.00000000
      1.97000000	      6.75120933	     -0.08909211	     -1.05866972	      0.71892174	      0.98643974	     -0.25197496	    -14.44356680	      0.48923112	     -7.32794565	    -39.81638769	    -12.10994725	     -1.42245603	      0.00000000	     14.43131862	      2.64390937	      5.25495529	    -18.48730740	     -4.26845142	     -9.22730877	      0.00000000	    -19.37526722	     -1.78841375	      6.53611837	     -7.36037830	    -11.22757065	     15.55645115	     77.95803514	     43.85806218	      0.00000000	      0.00000000	     -5.43633106	     -8.15804640	     21.36010740	     33.23752044	     43.85806218	      0.00000000	      0.00000000
      1.98000000	      6.79821618	      0.36749392	     -0.90640038	      0.73283608	      0.98684894	     -0.25262497	    -13.00576169	     -0.48152603	     -8.55200124	    -43.10257217	    -11.81606465	     -2.13528151	      0.00000000	     13.88958766	      3.40354185	      6.09084075	    -19.21762676	     -3.41265764	     -9.73069526	      0.00000000	    -19.57728444	     -2.39793712	      6.06943248	     -7.51686544	    -11.00940515	     15.59408428	     77.66411981	     43.87474177	      0.00000000	      0.00000000	     -4.68187330	     -8.12137535	     21.36028940	     33.66487036	     43.87474177	      0.00000000	      0.00000000
      1.99000000	      6.85524567	      0.82011548	     -0.74153288	      0.74662091	      0.98714342	     -0.25311618	    -11.31874373	     -1.39941961	     -9.39724100	    -46.60261665	    -11.19736885	     -3.15174637	      0.00000000	     13.46687737	      4.01276898	      6.28492857	    -20.24103971	     -2.21925570	     -9.69530196	      0.00000000	    -19.80816689	     -2.99770240	      5.59966607	     -7.68968227	    -10.77648435	     15.62701623	     77.30904421	     43.88623533	      0.00000000	      0.00000000	     -3.83793954	     -8.15190751	     21.39675623	     34.15318743	     43.88623533	      0.00000000	      0.00000000
      2.00000000	      6.96487550	      1.18660915	     -0.65791348	      0.76017660	      0.98742042	     -0.25333823	     -9.57617181	     -2.14858192	     -9.85299628	    -49.97494888	    -10.37866638	     -4.81270641	      0.00000000	     12.88778298	      4.43963960	      6.10625168	    -21.05390397	     -0.87710590	     -9.59010411	      0.00000000	    -20.13500547	     -3.52495744	      5.20158336	     -7.77150771	    -10.56087504	     15.66312761	     77.02071832	     43.89263806	      0.00000000	      0.00000000	     -2.92279296	     -8.11599598	     21.42850832	     34.60708708	     43.89263806	      0.00000000	      0.00000000
      2.01000000	      6.86455043	      1.51066463	     -0.70018604	      0.77340801	      0.98750596	     -0.25316530	     -7.51391668	     -2.64160383	     -9.80231762	    -53.16105498	     -9.49267382	     -6.72692785	      0.00000000	     12.59637196	      4.65316442	      5.30658993	    -21.92098528	      0.71731308	     -8.14201322	      0.00000000	    -20.23589080	     -4.04272803	      4.88079906	     -7.68608792	    -10.11467668	     15.57050135	     75.79599293	     43.92045784	      0.00000000	      0.00000000	     -2.19526297	     -8.34085060	     21.75437389	     35.79883766	     43.92045784	      0.00000000	      0.00000000
      2.02000000	      7.17407572	      1.68002851	     -0.78355089	      0.78670843	      0.98830794	     -0.25305075	     -6.00595204	     -3.07646470	     -9.89493211	    -55.86617122	     -8.36737426	     -8.04827739	      0.00000000	     11.52981278	      4.89077495	      5.44348413	    -22.21871639	      1.96783426	     -8.21907601	      0.00000000	    -20.78511833	     -4.36035247	      4.58453216	     -7.69852807	     -9.96937393	     15.62220229	     75.61200064	     43.92398514	      0.00000000	      0.00000000	     -1.25106687	     -8.25876410	     21.76952032	     36.19808861	     43.92398514	      0.00000000	      0.00000000
      2.03000000	      7.41695358	      1.99963400	     -1.02736486	      0.79969543	      0.98936837	     -0.25288678	     -4.32845226	     -3.59188196	     -9.61679233	    -58.32594441	     -7.38533762	     -9.46446550	      0.00000000	     10.47006482	      5.15434199	      4.90351135	    -22.29814115	      2.90793585	     -7.71180173	      0.00000000	    -21.29110333	     -4.87277941	      4.50833610	     -7.75634164	     -9.70273192	     15.68176754	     74.71600689	     43.93692930	      0.00000000	      0.00000000	     -0.13254326	     -8.32294164	     21.97089040	     37.09869017	     43.93692930	      0.00000000	      0.00000000
      2.04000000	      7.72759118	      1.96041780	     -1.19152026	      0.81269247	      0.99076110	     -0.25288370	     -2.77572222	     -3.64955461	     -9.18865868	    -60.30440540	     -6.50958369	    -10.05871134	      0.00000000	      9.27288581	      5.16031945	      5.04824907	    -22.34793564	      4.00150897	     -7.63789295	      0.00000000	    -21.82837993	     -4.91928174	      4.24500280	     -7.64198720	     -9.57813781	     15.70595440	     74.40159163	     43.94077336	      0.00000000	      0.00000000	      0.78298049	     -8.17685548	     22.04131254	     37.57660547	     43.94077336	      0.00000000	      0.00000000
      2.05000000	      7.97582386	      1.93971012	     -1.37890025	      0.82562921	      0.99240567	     -0.25294385	     -1.21351304	     -3.65926800	     -8.82795627	    -61.88551635	     -5.48925879	    -10.77139680	      0.00000000	      8.00889058	      5.08504838	      4.61778998	    -22.06657418	      4.93852817	     -6.97890601	      0.00000000	    -22.26395242	     -5.00167973	      3.99421759	     -6.80130446	     -9.19886638	     16.28332026	     71.08646113	     44.00641548	      0.00000000	      0.00000000	      1.29520166	     -8.70530563	     23.29552798	     40.24818293	     44.00641548	      0.00000000	      0.00000000
      2.06000000	      8.11452014	      1.73237816	     -1.40108825	      0.83850854	      0.99402291	     -0.25332462	      0.37475030	     -3.44499362	     -8.65012506	    -63.02655888	     -4.56044772	    -11.19957069	      0.00000000	      6.98409970	      4.96634251	      4.88173593	    -22.05322823	      5.69168542	     -7.04408357	      0.00000000	    -22.54706346	     -4.74710225	      3.64634503	     -6.87896212	     -9.15245830	     16.36078891	     70.83578069	     44.01137484	      0.00000000	      0.00000000	      2.23973138	     -8.47416817	     23.33314214	     40.67800201	     44.01137484	      0.00000000	      0.00000000
      2.07000000	      8.16926165	      1.53390486	     -1.30278188	      0.85158164	      0.99580598	     -0.25390463	      1.97309840	     -3.18673860	     -8.51081723	    -63.76520752	     -3.75554040	    -11.37625016	      0.00000000	      5.90432014	      4.82443310	      4.93354846	    -21.73118382	      6.26558494	     -7.10217631	      0.00000000	    -22.67558185	     -4.44714536	      3.11923881	     -7.02209814	     -9.12161289	     16.39839702	     70.61673807	     44.01335093	      0.00000000	      0.00000000	      2.99090851	     -8.25078657	     23.36352187	     41.01607575	     44.01335093	      0.00000000	      0.00000000
      2.08000000	      8.02236416	      1.35543540	     -1.20214435	      0.86469793	      0.99748091	     -0.25453227	      3.64557514	     -3.07553601	     -8.51990225	    -64.14604545	     -2.11815457	    -10.22535250	      0.00000000	      4.82362595	      4.76717550	      5.66646442	    -21.01414830	      6.60342535	     -7.60053773	      0.00000000	    -22.52506458	     -4.17040465	      2.80789057	     -6.52691949	     -8.68145076	     16.70224591	     67.40597543	     44.05467449	      0.00000000	      0.00000000	      3.69181975	     -8.54893684	     24.23198266	     43.45129074	     44.05467449	      0.00000000	      0.00000000
